<?xml version="1.0" encoding="UTF-8"?>
<svg width="170px" height="170px" viewBox="0 0 170 170" version="1.1" xmlns="http://www.w3.org/2000/svg" xmlns:xlink="http://www.w3.org/1999/xlink">
    <!-- Generator: Sketch 52.2 (67145) - http://www.bohemiancoding.com/sketch -->
    <title>JR_JK_line_symbol</title>
    <desc>Created with Sketch.</desc>
    <g id="JR_JK_line_symbol" stroke="none" stroke-width="1" fill="none" fill-rule="evenodd">
        <path d="M170.079,150.236 C170.079,161.15 161.15,170.079 150.236,170.079 L19.842,170.079 C8.929,170.079 0,161.15 0,150.236 L0,19.842 C0,8.929 8.929,0 19.842,0 L150.236,0 C161.15,0 170.079,8.929 170.079,19.842 L170.079,150.236 Z" id="Path" fill="#1DAED1"></path>
        <rect id="Rectangle" fill="#FFFFFF" x="19" y="19" width="132.896" height="132.896"></rect>
        <polygon id="Path" fill="#000000" points="116.517 117.772 88.716 86.243 88.716 117.772 77 117.772 77 47 88.716 47 88.716 75.263 114.832 47 129.316 47 98.013 80.12 131.721 117.772"></polygon>
        <path d="M48.037,118.351 C46.511,118.351 44.958,118.267 43.423,118.103 C41.878,117.937 40.357,117.687 38.903,117.361 L38,117.156 L38,106.117 L39.542,106.662 C40.577,107.025 41.584,107.303 42.537,107.482 C43.479,107.662 44.489,107.752 45.537,107.752 C49.136,107.752 51.642,106.606 53.196,104.25 C54.829,101.771 55.658,97.502 55.658,91.564 L55.658,47 L68.231,47 L68.231,93.634 C68.231,101.962 66.6,108.212 63.383,112.21 C60.102,116.287 54.94,118.351 48.037,118.351 Z" id="Path" fill="#000000"></path>
    </g>
</svg>