<?xml version="1.0" encoding="UTF-8"?>
<svg width="170px" height="170px" viewBox="0 0 170 170" version="1.1" xmlns="http://www.w3.org/2000/svg" xmlns:xlink="http://www.w3.org/1999/xlink">
    <!-- Generator: Sketch 52.2 (67145) - http://www.bohemiancoding.com/sketch -->
    <title>JR_JC_line_symbol</title>
    <desc>Created with Sketch.</desc>
    <g id="JR_JC_line_symbol" stroke="none" stroke-width="1" fill="none" fill-rule="evenodd">
        <path d="M170.079,150.236 C170.079,161.15 161.15,170.079 150.236,170.079 L19.842,170.079 C8.929,170.079 8.52651283e-14,161.15 8.52651283e-14,150.236 L8.52651283e-14,19.842 C8.52651283e-14,8.929 8.929,-1.13686838e-13 19.842,-1.13686838e-13 L150.236,-1.13686838e-13 C161.15,-1.13686838e-13 170.079,8.929 170.079,19.842 L170.079,150.236 Z" id="Path" fill="#DD6935"></path>
        <rect id="Rectangle" fill="#FFFFFF" x="18.591" y="18.709" width="132.896" height="132.896"></rect>
        <path d="M113.191,120.583 C101.055,120.583 91.323,117.398 84.269,111.12 C77.172,104.806 73.574,96.104 73.574,85.257 C73.574,74.284 77.239,65.413 84.467,58.89 C91.659,52.397 101.428,49.106 113.499,49.106 C116.721,49.106 119.833,49.33 122.75,49.772 C125.688,50.215 128.488,50.91 131.075,51.835 L131.886,52.125 L131.354,62.919 L129.852,62.33 C127.127,61.262 124.429,60.45 121.834,59.918 C119.245,59.389 116.578,59.119 113.909,59.119 C105.527,59.119 98.8,61.448 93.915,66.04 C89.049,70.612 86.582,76.899 86.582,84.724 C86.582,92.641 89.039,98.933 93.882,103.428 C98.751,107.943 105.524,110.232 114.012,110.232 C116.735,110.232 119.414,109.986 121.979,109.502 C124.565,109.016 127.152,108.293 129.664,107.353 L131.172,106.789 L131.568,117.902 L130.718,118.162 C128.14,118.953 125.361,119.561 122.457,119.968 C119.569,120.375 116.452,120.583 113.191,120.583 Z" id="Path" fill="#000000"></path>
        <path d="M48.251,120.973 C46.707,120.973 45.15,120.888 43.625,120.724 C42.086,120.558 40.561,120.306 39.097,119.976 L38.192,119.773 L38.192,108.685 L39.739,109.234 C40.768,109.598 41.778,109.877 42.739,110.059 C43.687,110.24 44.699,110.331 45.744,110.331 C49.35,110.331 51.859,109.179 53.417,106.81 C55.055,104.32 55.886,100.033 55.886,94.064 L55.886,49.299 L68.485,49.299 L68.485,96.147 C68.485,104.511 66.85,110.789 63.627,114.805 C60.344,118.898 55.17,120.973 48.251,120.973 Z" id="Path" fill="#000000"></path>
    </g>
</svg>