<?xml version="1.0" encoding="UTF-8"?>
<svg width="170px" height="170px" viewBox="0 0 170 170" version="1.1" xmlns="http://www.w3.org/2000/svg" xmlns:xlink="http://www.w3.org/1999/xlink">
    <!-- Generator: Sketch 52.2 (67145) - http://www.bohemiancoding.com/sketch -->
    <title>JR_JE_line_symbol</title>
    <desc>Created with Sketch.</desc>
    <g id="JR_JE_line_symbol" stroke="none" stroke-width="1" fill="none" fill-rule="evenodd">
        <path d="M170.079,150.236 C170.079,161.15 161.15,170.079 150.236,170.079 L19.842,170.079 C8.929,170.079 -1.42108547e-13,161.15 -1.42108547e-13,150.236 L-1.42108547e-13,19.842 C-1.42108547e-13,8.929 8.929,0 19.842,0 L150.236,0 C161.15,0 170.079,8.929 170.079,19.842 L170.079,150.236 Z" id="Path" fill="#D01827"></path>
        <rect id="Rectangle" fill="#FFFFFF" x="18.591" y="18.24" width="132.896" height="132.896"></rect>
        <path d="M51.129,120.436 C49.623,120.436 48.094,120.354 46.583,120.193 C45.063,120.031 43.565,119.787 42.131,119.466 L41.239,119.268 L41.239,108.473 L42.757,109.005 C43.768,109.36 44.76,109.63 45.707,109.807 C46.639,109.982 47.634,110.07 48.665,110.07 C52.213,110.07 54.683,108.954 56.214,106.654 C57.823,104.239 58.638,100.079 58.638,94.286 L58.638,50.792 L71.025,50.792 L71.025,96.308 C71.025,104.438 69.417,110.538 66.244,114.445 C63.016,118.419 57.929,120.436 51.129,120.436 Z" id="Path" fill="#000000"></path>
        <polygon id="Path" fill="#000000" points="85.513 119.87 85.513 50.791 126.462 50.791 126.462 60.263 97.8 60.263 97.8 79.183 124.906 79.183 124.906 88.986 97.8 88.986 97.8 109.88 127.418 109.88 127.418 119.87"></polygon>
    </g>
</svg>