<?xml version="1.0" encoding="UTF-8"?>
<svg width="170px" height="170px" viewBox="0 0 170 170" version="1.1" xmlns="http://www.w3.org/2000/svg" xmlns:xlink="http://www.w3.org/1999/xlink">
    <!-- Generator: Sketch 52.2 (67145) - http://www.bohemiancoding.com/sketch -->
    <title>JR_JL_line_symbol</title>
    <desc>Created with Sketch.</desc>
    <g id="JR_JL_line_symbol" stroke="none" stroke-width="1" fill="none" fill-rule="evenodd">
        <path d="M170.079,150.236 C170.079,161.15 161.15,170.079 150.236,170.079 L19.842,170.079 C8.929,170.079 8.52651283e-14,161.15 8.52651283e-14,150.236 L8.52651283e-14,19.842 C8.52651283e-14,8.929 8.929,-1.13686838e-13 19.842,-1.13686838e-13 L150.236,-1.13686838e-13 C161.15,-1.13686838e-13 170.079,8.929 170.079,19.842 L170.079,150.236 Z" id="Path" fill="#868587"></path>
        <rect id="Rectangle" fill="#FFFFFF" x="18.591" y="18.237" width="132.896" height="132.896"></rect>
        <polygon id="Path" fill="#000000" points="83.807 121.357 83.807 47.408 97.041 47.408 97.041 110.549 127.751 110.549 127.751 121.357"></polygon>
        <path d="M52.979,121.961 C51.35,121.961 49.703,121.874 48.083,121.703 C46.449,121.528 44.837,121.267 43.29,120.926 L42.327,120.715 L42.327,109.146 L43.959,109.713 C45.051,110.092 46.121,110.381 47.139,110.57 C48.14,110.757 49.214,110.851 50.327,110.851 C54.15,110.851 56.811,109.655 58.461,107.194 C60.191,104.612 61.069,100.161 61.069,93.965 L61.069,47.408 L74.412,47.408 L74.412,96.13 C74.412,104.836 72.679,111.367 69.26,115.547 C65.779,119.803 60.302,121.961 52.979,121.961 Z" id="Path" fill="#000000"></path>
    </g>
</svg>