<?xml version="1.0" encoding="UTF-8"?>
<svg width="170px" height="170px" viewBox="0 0 170 170" version="1.1" xmlns="http://www.w3.org/2000/svg" xmlns:xlink="http://www.w3.org/1999/xlink">
    <!-- Generator: Sketch 52.2 (67145) - http://www.bohemiancoding.com/sketch -->
    <title>JR_JT_line_symbol</title>
    <desc>Created with Sketch.</desc>
    <g id="JR_JT_line_symbol" stroke="none" stroke-width="1" fill="none" fill-rule="evenodd">
        <path d="M170.079,150.236 C170.079,161.15 161.15,170.079 150.236,170.079 L19.842,170.079 C8.929,170.079 -1.42108547e-13,161.15 -1.42108547e-13,150.236 L-1.42108547e-13,19.842 C-1.42108547e-13,8.929 8.929,-1.13686838e-13 19.842,-1.13686838e-13 L150.236,-1.13686838e-13 C161.15,-1.13686838e-13 170.079,8.929 170.079,19.842 L170.079,150.236 Z" id="Path" fill="#F0862B"></path>
        <rect id="Rectangle" fill="#FFFFFF" x="18.592" y="18.591" width="132.895" height="132.896"></rect>
        <g id="Group" transform="translate(36.000000, 47.000000)" fill="#000000">
            <path d="M10.758,71.724 C9.112,71.724 7.457,71.641 5.835,71.477 C4.202,71.314 2.581,71.064 1.02,70.735 L0.45,70.616 L0.45,60.464 L1.392,60.775 C2.531,61.154 3.647,61.44 4.709,61.63 C5.766,61.817 6.893,61.911 8.057,61.911 C12.146,61.911 15.001,60.68 16.785,58.144 C18.601,55.57 19.52,51.176 19.52,45.082 L19.52,0.455 L32.034,0.455 L32.034,47.177 C32.034,55.502 30.307,61.734 26.9,65.7 C23.468,69.699 18.036,71.724 10.758,71.724 Z" id="Path"></path>
            <polygon id="Path" points="63.232 71.14 63.232 9.978 41.295 9.978 41.295 0.455 97.627 0.455 97.627 9.978 75.69 9.978 75.69 71.14"></polygon>
        </g>
    </g>
</svg>