<?xml version="1.0" encoding="UTF-8"?>
<svg width="170px" height="170px" viewBox="0 0 170 170" version="1.1" xmlns="http://www.w3.org/2000/svg" xmlns:xlink="http://www.w3.org/1999/xlink">
    <!-- Generator: Sketch 52.2 (67145) - http://www.bohemiancoding.com/sketch -->
    <title>JR_JA_line_symbol</title>
    <desc>Created with Sketch.</desc>
    <g id="JR_JA_line_symbol" stroke="none" stroke-width="1" fill="none" fill-rule="evenodd">
        <path d="M170.079,150.236 C170.079,161.15 161.15,170.079 150.236,170.079 L19.842,170.079 C8.929,170.079 0,161.15 0,150.236 L0,19.842 C0,8.929 8.929,0 19.842,0 L150.236,0 C161.15,0 170.079,8.929 170.079,19.842 L170.079,150.236 Z" id="Path" fill="#14A676"></path>
        <rect id="Rectangle" fill="#FFFFFF" x="19" y="18" width="132.896" height="132.896"></rect>
        <path d="M124.935,121.255 L117.566,103.066 L82.851,103.066 L75.483,121.255 L62,121.255 L93.545,48 L108.171,48 L139.157,121.255 L124.935,121.255 Z M113.508,92.704 L100.62,61.077 L87.308,92.704 L113.508,92.704 Z" id="Shape" fill="#000000" fill-rule="nonzero"></path>
        <path d="M41.577,121.853 C39.96,121.853 38.325,121.767 36.716,121.597 C35.097,121.425 33.496,121.167 31.957,120.827 L31,120.616 L31,109.151 L32.619,109.714 C33.705,110.091 34.767,110.376 35.777,110.564 C36.772,110.748 37.839,110.843 38.943,110.843 C42.74,110.843 45.381,109.657 47.019,107.22 C48.738,104.661 49.61,100.255 49.61,94.118 L49.61,48 L62.858,48 L62.858,96.264 C62.858,104.889 61.137,111.36 57.741,115.502 C54.287,119.717 48.849,121.853 41.577,121.853 Z" id="Path" fill="#000000"></path>
    </g>
</svg>