<?xml version="1.0" encoding="UTF-8"?>
<svg width="170px" height="170px" viewBox="0 0 170 170" version="1.1" xmlns="http://www.w3.org/2000/svg" xmlns:xlink="http://www.w3.org/1999/xlink">
    <!-- Generator: Sketch 52.2 (67145) - http://www.bohemiancoding.com/sketch -->
    <title>JR_JB_line_symbol</title>
    <desc>Created with Sketch.</desc>
    <g id="JR_JB_line_symbol" stroke="none" stroke-width="1" fill="none" fill-rule="evenodd">
        <path d="M170.079,150.236 C170.079,161.15 161.15,170.079 150.236,170.079 L19.842,170.079 C8.929,170.079 0,161.15 0,150.236 L0,19.842 C0,8.929 8.929,-1.13686838e-13 19.842,-1.13686838e-13 L150.236,-1.13686838e-13 C161.15,-1.13686838e-13 170.079,8.929 170.079,19.842 L170.079,150.236 Z" id="Path" fill="#F2D01F"></path>
        <rect id="Rectangle" fill="#FFFFFF" x="18.591" y="18.592" width="132.896" height="132.896"></rect>
        <path d="M79.912,122.952 L79.912,47.189 L102.349,47.189 C111.126,47.189 118.043,48.894 122.906,52.257 C127.915,55.722 130.453,60.649 130.453,66.902 C130.453,71.257 129.095,74.998 126.414,78.02 C124.535,80.14 122.042,81.831 118.97,83.071 C122.757,84.413 125.814,86.314 128.088,88.745 C131.171,92.05 132.734,96.249 132.734,101.229 C132.734,108.125 130.012,113.553 124.645,117.36 C119.412,121.071 111.949,122.954 102.46,122.954 L79.912,122.954 L79.912,122.952 Z M100.513,112.083 C106.639,112.083 111.293,111.044 114.347,108.997 C117.281,107.028 118.707,104.202 118.707,100.352 C118.707,96.596 117.392,93.848 114.686,91.95 C111.875,89.981 107.576,88.983 101.905,88.983 L93.383,88.983 L93.383,112.081 L100.514,112.081 L100.514,112.083 L100.513,112.083 Z M100.18,78.527 C105.603,78.527 109.777,77.559 112.589,75.651 C115.284,73.823 116.596,71.28 116.596,67.88 C116.596,64.58 115.375,62.138 112.865,60.414 C110.236,58.611 106.324,57.697 101.238,57.697 L93.383,57.697 L93.383,78.526 L100.18,78.527 Z" id="Shape" fill="#000000" fill-rule="nonzero"></path>
        <path d="M48.276,123.262 C46.599,123.262 44.909,123.172 43.252,122.996 C41.585,122.82 39.93,122.555 38.335,122.201 L37.346,121.984 L37.346,110.129 L39.018,110.709 C40.144,111.098 41.242,111.395 42.282,111.588 C43.313,111.779 44.413,111.875 45.554,111.875 C49.477,111.875 52.207,110.65 53.901,108.131 C55.676,105.483 56.577,100.926 56.577,94.58 L56.577,46.878 L70.27,46.878 L70.27,96.795 C70.27,105.715 68.491,112.41 64.983,116.691 C61.411,121.051 55.791,123.262 48.276,123.262 Z" id="Path" fill="#000000"></path>
    </g>
</svg>