<?xml version="1.0" encoding="UTF-8"?>
<svg width="170px" height="170px" viewBox="0 0 170 170" version="1.1" xmlns="http://www.w3.org/2000/svg" xmlns:xlink="http://www.w3.org/1999/xlink">
    <!-- Generator: Sketch 52.2 (67145) - http://www.bohemiancoding.com/sketch -->
    <title>JR_JH_line_symbol</title>
    <desc>Created with Sketch.</desc>
    <g id="JR_JH_line_symbol" stroke="none" stroke-width="1" fill="none" fill-rule="evenodd">
        <path d="M170.079,150.236 C170.079,161.15 161.15,170.079 150.236,170.079 L19.842,170.079 C8.929,170.079 -2.84217094e-14,161.15 -2.84217094e-14,150.236 L-2.84217094e-14,19.842 C-2.84217094e-14,8.929 8.929,0 19.842,0 L150.236,0 C161.15,0 170.079,8.929 170.079,19.842 L170.079,150.236 Z" id="Path" fill="#B1CB39"></path>
        <rect id="Rectangle" fill="#FFFFFF" x="18.591" y="18.237" width="132.896" height="132.896"></rect>
        <polygon id="Path" fill="#000000" points="119.455 120.399 119.455 88.508 89.674 88.508 89.674 120.399 77.439 120.399 77.439 49.098 89.674 49.098 89.674 78.318 119.455 78.318 119.455 49.098 131.687 49.098 131.687 120.399"></polygon>
        <path d="M48.491,120.981 C46.945,120.981 45.383,120.898 43.848,120.732 C42.301,120.567 40.77,120.314 39.3,119.983 L38.392,119.778 L38.392,108.656 L39.945,109.207 C40.981,109.574 41.994,109.852 42.956,110.034 C43.91,110.215 44.925,110.306 45.975,110.306 C49.596,110.306 52.117,109.152 53.681,106.778 C55.325,104.282 56.159,99.981 56.159,93.995 L56.159,49.098 L68.81,49.098 L68.81,96.082 C68.81,104.472 67.168,110.767 63.931,114.794 C60.631,118.9 55.437,120.981 48.491,120.981 Z" id="Path" fill="#000000"></path>
    </g>
</svg>