<?xml version="1.0" encoding="UTF-8"?>
<svg width="170px" height="170px" viewBox="0 0 170 170" version="1.1" xmlns="http://www.w3.org/2000/svg" xmlns:xlink="http://www.w3.org/1999/xlink">
    <!-- Generator: Sketch 52.2 (67145) - http://www.bohemiancoding.com/sketch -->
    <title>JR_JJ_line_symbol</title>
    <desc>Created with Sketch.</desc>
    <g id="JR_JJ_line_symbol" stroke="none" stroke-width="1" fill="none" fill-rule="evenodd">
        <path d="M170.079,150.236 C170.079,161.15 161.15,170.079 150.236,170.079 L19.842,170.079 C8.929,170.079 8.52651283e-14,161.15 8.52651283e-14,150.236 L8.52651283e-14,19.842 C8.52651283e-14,8.929 8.929,0 19.842,0 L150.236,0 C161.15,0 170.079,8.929 170.079,19.842 L170.079,150.236 Z" id="Path" fill="#1DAF7E"></path>
        <rect id="Rectangle" fill="#FFFFFF" x="18.591" y="18.237" width="132.896" height="132.896"></rect>
        <path d="M94.474,119.012 C92.869,119.012 91.24,118.931 89.635,118.773 C88.023,118.615 86.429,118.375 84.898,118.061 L83.949,117.865 L83.949,107.222 L85.562,107.744 C86.644,108.095 87.702,108.361 88.705,108.534 C89.695,108.708 90.756,108.794 91.852,108.794 C95.627,108.794 98.253,107.691 99.885,105.426 C101.598,103.045 102.467,98.944 102.467,93.236 L102.467,50.357 L115.649,50.357 L115.649,95.227 C115.649,103.242 113.937,109.256 110.56,113.105 C107.124,117.025 101.711,119.012 94.474,119.012 Z" id="Path" fill="#000000"></path>
        <path d="M55.218,119.012 C53.613,119.012 51.986,118.931 50.38,118.773 C48.766,118.615 47.172,118.374 45.642,118.061 L44.692,117.864 L44.692,107.222 L46.306,107.744 C47.386,108.095 48.442,108.36 49.445,108.536 C50.437,108.708 51.496,108.794 52.594,108.794 C56.371,108.794 58.998,107.691 60.627,105.427 C62.339,103.045 63.208,98.944 63.208,93.236 L63.208,50.357 L76.391,50.357 L76.391,95.227 C76.391,103.242 74.68,109.256 71.304,113.105 C67.867,117.025 62.456,119.012 55.218,119.012 Z" id="Path" fill="#000000"></path>
    </g>
</svg>