<?xml version="1.0" encoding="UTF-8"?>
<svg width="170px" height="170px" viewBox="0 0 170 170" version="1.1" xmlns="http://www.w3.org/2000/svg" xmlns:xlink="http://www.w3.org/1999/xlink">
    <!-- Generator: Sketch 52.2 (67145) - http://www.bohemiancoding.com/sketch -->
    <title>JR_JM_line_symbol</title>
    <desc>Created with Sketch.</desc>
    <g id="JR_JM_line_symbol" stroke="none" stroke-width="1" fill="none" fill-rule="evenodd">
        <path d="M170.079,150.236 C170.079,161.15 161.15,170.079 150.236,170.079 L19.842,170.079 C8.929,170.079 -2.84217094e-14,161.15 -2.84217094e-14,150.236 L-2.84217094e-14,19.842 C-2.84217094e-14,8.929 8.929,0 19.842,0 L150.236,0 C161.15,0 170.079,8.929 170.079,19.842 L170.079,150.236 Z" id="Path" fill="#EB5A28"></path>
        <rect id="Rectangle" fill="#FFFFFF" x="18.591" y="18.237" width="132.896" height="132.896"></rect>
        <path d="M125.29,118.558 L125.29,65.786 L107.367,118.557 L98.615,118.557 L81.062,65.938 L81.062,118.557 L71.666,118.557 L71.666,49.681 L85.791,49.681 L102.996,102.105 C103.091,102.4 103.182,102.701 103.268,103.005 C103.362,102.603 103.46,102.255 103.56,101.956 L121.419,49.681 L135.371,49.681 L135.371,118.558 L125.29,118.558 Z" id="Path" fill="#000000"></path>
        <path d="M44.662,119.123 C43.14,119.123 41.6,119.039 40.086,118.881 C38.562,118.721 37.054,118.477 35.607,118.156 L34.706,117.959 L34.706,107.18 L36.229,107.707 C37.248,108.061 38.248,108.328 39.202,108.506 C40.139,108.68 41.142,108.766 42.181,108.766 C45.756,108.766 48.243,107.653 49.784,105.362 C51.401,102.958 52.222,98.815 52.222,93.048 L52.222,49.682 L64.693,49.682 L64.693,95.06 C64.693,103.169 63.072,109.255 59.877,113.148 C56.624,117.111 51.505,119.123 44.662,119.123 Z" id="Path" fill="#000000"></path>
    </g>
</svg>