<?xml version="1.0" encoding="UTF-8"?>
<svg width="170px" height="170px" viewBox="0 0 170 170" version="1.1" xmlns="http://www.w3.org/2000/svg" xmlns:xlink="http://www.w3.org/1999/xlink">
    <!-- Generator: Sketch 52.2 (67145) - http://www.bohemiancoding.com/sketch -->
    <title>JR_JO_line_symbol</title>
    <desc>Created with Sketch.</desc>
    <g id="JR_JO_line_symbol" stroke="none" stroke-width="1" fill="none" fill-rule="evenodd">
        <path d="M170.079,150.236 C170.079,161.15 161.15,170.079 150.236,170.079 L19.842,170.079 C8.929,170.079 0,161.15 0,150.236 L0,19.842 C0,8.929 8.929,0 19.842,0 L150.236,0 C161.15,0 170.079,8.929 170.079,19.842 L170.079,150.236 Z" id="Path" fill="#1069B4"></path>
        <rect id="Rectangle" fill="#FFFFFF" x="19" y="18" width="132.896" height="132.896"></rect>
        <path d="M105.511,122.039 C94.983,122.039 86.507,118.824 80.316,112.48 C74.133,106.148 71,97.406 71,86.496 C71,75.619 74.134,66.892 80.316,60.559 C86.507,54.216 94.984,51 105.511,51 C116.039,51 124.509,54.216 130.683,60.56 C136.847,66.894 139.974,75.62 139.974,86.496 C139.974,97.406 136.857,106.146 130.71,112.478 C124.552,118.823 116.076,122.039 105.511,122.039 Z M105.511,61.076 C99.08,61.076 94.075,63.301 90.214,67.876 C86.347,72.458 84.386,78.691 84.386,86.404 C84.386,94.148 86.347,100.379 90.211,104.927 C94.071,109.474 99.074,111.685 105.511,111.685 C111.948,111.685 116.963,109.474 120.84,104.925 C124.72,100.376 126.688,94.146 126.688,86.404 C126.688,78.695 124.71,72.462 120.812,67.88 C116.917,63.304 111.912,61.076 105.511,61.076 Z" id="Shape" fill="#000000" fill-rule="nonzero"></path>
        <path d="M40.731,121.097 C39.123,121.097 37.486,121.017 35.868,120.859 C34.243,120.699 32.64,120.457 31.103,120.14 L30,119.913 L30,108.743 L31.806,109.327 C32.885,109.675 33.94,109.938 34.947,110.112 C35.94,110.286 36.999,110.37 38.099,110.37 C41.855,110.37 44.46,109.296 46.061,107.079 C47.742,104.753 48.594,100.718 48.594,95.087 L48.594,52 L62.159,52 L62.159,97.08 C62.159,105.166 60.415,111.244 56.976,115.143 C53.493,119.091 48.027,121.097 40.731,121.097 Z" id="Path" fill="#000000"></path>
    </g>
</svg>