<?xml version="1.0" encoding="utf-8"?>
<!-- Generator: Adobe Illustrator 16.2.0, SVG Export Plug-In . SVG Version: 6.00 Build 0)  -->
<!DOCTYPE svg PUBLIC "-//W3C//DTD SVG 1.1//EN" "http://www.w3.org/Graphics/SVG/1.1/DTD/svg11.dtd">
<svg version="1.1" id="レイヤー_1" xmlns="http://www.w3.org/2000/svg" xmlns:xlink="http://www.w3.org/1999/xlink" x="0px"
	 y="0px" width="170.079px" height="170.079px" viewBox="0 0 170.079 170.079" enable-background="new 0 0 170.079 170.079"
	 xml:space="preserve">
<g>
	<path fill="#DB2027" d="M-92.921,32.938c0,7.795-6.377,14.172-14.173,14.172h-141.733c-7.795,0-14.173-6.377-14.173-14.172
		v-141.734c0-7.795,6.378-14.173,14.173-14.173h141.733c7.796,0,14.173,6.378,14.173,14.173V32.938L-92.921,32.938z"/>
</g>
<g>
	<path fill="#DB2027" d="M170.079,150.236c0,10.914-8.929,19.843-19.843,19.843H19.842C8.929,170.079,0,161.15,0,150.236V20.202
		C0,9.289,8.929,0.36,19.842,0.36h130.394c10.914,0,19.843,8.929,19.843,19.842V150.236z"/>
</g>
<rect x="18.591" y="18.237" fill="#FFFFFF" width="132.896" height="132.896"/>
<g>
	<g>
		<g>
			<g>
				<path d="M101.4,121.216c-3.667,0-7.223-0.273-10.567-0.811c-3.354-0.537-6.537-1.342-9.461-2.387l-0.91-0.326l1.377-12.148
					l1.549,0.746c3.064,1.482,6.059,2.588,8.899,3.289c2.832,0.703,5.627,1.059,8.307,1.059c4.21,0,7.614-0.863,10.119-2.568
					c2.391-1.627,3.553-3.701,3.553-6.342c0-4.162-5.331-9.162-15.42-14.461c-1.783-0.922-3.174-1.664-4.12-2.203
					c-4.198-2.246-7.571-5.051-9.998-8.329c-2.477-3.343-3.733-6.844-3.733-10.407c0-5.886,2.459-10.622,7.311-14.076
					c4.721-3.361,11.189-5.066,19.224-5.066c2.948,0,5.847,0.205,8.616,0.609c2.774,0.405,5.481,1.021,8.039,1.831l0.966,0.306
					l-1.403,11.28l-1.504-0.673c-2.27-1.018-4.638-1.792-7.039-2.304c-2.4-0.509-4.946-0.768-7.568-0.768
					c-4.373,0-7.802,0.741-10.195,2.204c-2.23,1.364-3.313,3.167-3.313,5.515c0,1.869,0.746,3.539,2.284,5.104
					c1.654,1.685,5.362,3.995,11.023,6.867c7.766,3.944,12.996,7.459,15.99,10.742c3.064,3.363,4.618,7.262,4.618,11.594
					c0,6.348-2.549,11.629-7.574,15.693C115.521,119.187,109.105,121.216,101.4,121.216z"/>
			</g>
		</g>
	</g>
	<g>
		<g>
			<g>
				<path d="M52.604,121.316c-1.608,0-3.242-0.086-4.857-0.256c-1.623-0.17-3.224-0.428-4.758-0.766l-0.956-0.211v-11.428
					l1.617,0.559c1.083,0.377,2.144,0.662,3.155,0.848c0.997,0.186,2.061,0.275,3.165,0.275c3.796,0,6.437-1.178,8.073-3.605
					c1.717-2.545,2.587-6.936,2.587-13.049v-45.95h13.242V95.82c0,8.592-1.72,15.043-5.115,19.168
					C65.304,119.187,59.869,121.316,52.604,121.316z"/>
			</g>
		</g>
	</g>
</g>
<g>
	<path fill="#FFFFFF" d="M-82.461,145.51c15.676,0,28.438-12.764,28.438-28.465V41.187c0-15.7-12.762-28.464-28.438-28.464h-75.881
		c-15.677,0-28.417,12.764-28.417,28.464v75.859c0,15.701,12.739,28.465,28.417,28.465H-82.461L-82.461,145.51z"/>
	<path fill="#006CBA" d="M-158.32-6.276c-26.12,0-47.413,21.306-47.413,47.425v75.924c0,26.143,21.293,47.412,47.413,47.412h75.933
		c26.145,0,47.438-21.271,47.438-47.412V41.148c0-26.119-21.292-47.425-47.438-47.425L-158.32-6.276L-158.32-6.276z
		 M-186.768,117.073V41.148c0-15.667,12.757-28.448,28.448-28.448h75.933c15.691,0,28.424,12.781,28.424,28.448v75.924
		c0,15.666-12.733,28.471-28.424,28.471h-75.933C-174.011,145.543-186.768,132.739-186.768,117.073"/>
	<polygon points="-153.445,56.379 -172.459,56.379 -172.459,45.926 -121.092,45.926 -121.092,56.379 -140.13,56.379 
		-140.13,112.319 -153.445,112.319 	"/>
	<path d="M-76.978,58.089c-4.171-1.807-8.828-2.874-13.485-2.874c-4.561,0-10.477,2.012-10.477,9.264
		c0,11.507,29.126,6.657,29.126,28.898c0,14.574-11.519,20.104-24.932,20.104c-7.227,0-10.477-0.969-17.023-2.594l1.212-11.957
		c4.56,2.477,9.823,4.074,15.06,4.074c5.045,0,11.738-2.568,11.738-8.584c0-12.635-29.078-7.398-29.078-29.371
		c0-14.855,11.52-20.263,23.258-20.263c5.675,0,10.962,0.739,15.886,2.376L-76.978,58.089z"/>
</g>
</svg>
