<?xml version="1.0" encoding="UTF-8"?>
<svg width="170px" height="170px" viewBox="0 0 170 170" version="1.1" xmlns="http://www.w3.org/2000/svg" xmlns:xlink="http://www.w3.org/1999/xlink">
    <!-- Generator: Sketch 52.2 (67145) - http://www.bohemiancoding.com/sketch -->
    <title>JR_JU_line_symbol</title>
    <desc>Created with Sketch.</desc>
    <g id="JR_JU_line_symbol" stroke="none" stroke-width="1" fill="none" fill-rule="evenodd">
        <path d="M170.079,150.236 C170.079,161.15 161.15,170.079 150.236,170.079 L19.842,170.079 C8.929,170.079 -1.42108547e-13,161.15 -1.42108547e-13,150.236 L-1.42108547e-13,19.842 C-1.42108547e-13,8.929 8.929,0 19.842,0 L150.236,0 C161.15,0 170.079,8.929 170.079,19.842 L170.079,150.236 Z" id="Path" fill="#F18E41"></path>
        <rect id="Rectangle" fill="#FFFFFF" x="17.592" y="18.591" width="132.895" height="132.896"></rect>
        <path d="M103.591,122.307 C94.69,122.307 87.824,119.604 83.185,114.273 C78.589,108.992 76.26,101.149 76.26,90.966 L76.26,47.771 L88.472,47.771 L88.472,90.667 C88.472,97.937 89.772,103.348 92.334,106.75 C94.854,110.096 98.633,111.723 103.887,111.723 C109.203,111.723 113.076,109.968 115.729,106.362 C118.43,102.689 119.799,97.108 119.799,89.77 L119.799,47.772 L131.367,47.772 L131.367,89.972 C131.367,100.576 129.04,108.692 124.45,114.089 C119.81,119.542 112.792,122.307 103.591,122.307 Z" id="Path" fill="#000000"></path>
        <path d="M47.192,121.935 C45.591,121.935 43.97,121.848 42.375,121.679 C40.774,121.508 39.187,121.25 37.656,120.91 L36.711,120.701 L36.711,109.259 L38.32,109.823 C39.389,110.197 40.441,110.483 41.447,110.674 C42.437,110.858 43.493,110.951 44.581,110.951 C48.342,110.951 50.959,109.766 52.582,107.33 C54.287,104.773 55.151,100.365 55.151,94.228 L55.151,48.145 L68.281,48.145 L68.281,96.371 C68.281,104.985 66.576,111.45 63.214,115.587 C59.79,119.798 54.4,121.935 47.192,121.935 Z" id="Path" fill="#000000"></path>
    </g>
</svg>