<?xml version="1.0" encoding="UTF-8"?>
<svg width="170px" height="170px" viewBox="0 0 170 170" version="1.1" xmlns="http://www.w3.org/2000/svg" xmlns:xlink="http://www.w3.org/1999/xlink">
    <!-- Generator: Sketch 52.2 (67145) - http://www.bohemiancoding.com/sketch -->
    <title>JR_JY_line_symbol</title>
    <desc>Created with Sketch.</desc>
    <g id="JR_JY_line_symbol" stroke="none" stroke-width="1" fill="none" fill-rule="evenodd">
        <path d="M170.079,150.236 C170.079,161.15 161.151,170.079 150.237,170.079 L19.843,170.079 C8.93,170.079 -1.42108547e-13,161.15 -1.42108547e-13,150.236 L-1.42108547e-13,19.842 C-1.42108547e-13,8.929 8.93,0 19.843,0 L150.237,0 C161.151,0 170.079,8.929 170.079,19.842 L170.079,150.236 Z" id="Path" fill="#B1CB39"></path>
        <rect id="Rectangle" fill="#FFFFFF" x="18.592" y="18.591" width="132.895" height="132.896"></rect>
        <polygon id="Path" fill="#000000" points="95.091 119.623 95.091 91.113 67.269 49.885 82.166 49.885 101.783 80.811 121.8 49.885 135.83 49.885 107.784 90.925 107.784 119.623"></polygon>
        <path d="M44.383,120.193 C42.844,120.193 41.277,120.111 39.727,119.95 C38.168,119.787 36.633,119.54 35.166,119.217 L34.249,119.016 L34.249,108.089 L35.799,108.624 C36.838,108.982 37.856,109.255 38.823,109.434 C39.779,109.61 40.8,109.7 41.858,109.7 C45.498,109.7 48.03,108.571 49.598,106.252 C51.243,103.821 52.077,99.629 52.077,93.79 L52.077,49.885 L64.772,49.885 L64.772,95.83 C64.772,104.042 63.122,110.203 59.867,114.148 C56.557,118.159 51.347,120.193 44.383,120.193 Z" id="Path" fill="#000000"></path>
    </g>
</svg>